<svg width="60" height="66" viewBox="0 0 60 66" fill="none" xmlns="http://www.w3.org/2000/svg">
<path d="M32.2781 53.2931L16.1504 38.1428" stroke="black" stroke-linecap="round"/>
<path d="M16.6396 53.2933L48.8926 20.5729C49.8322 19.6197 51.1149 19.0829 52.4534 19.0829H59.1582" stroke="black" stroke-linecap="round"/>
<path d="M43.5073 58.6692C43.5073 62.4417 40.449 65.5 36.6765 65.5C32.904 65.5 29.8457 62.4417 29.8457 58.6692C29.8457 54.8966 32.904 51.8384 36.6765 51.8384C40.449 51.8384 43.5073 54.8966 43.5073 58.6692Z" stroke="black" stroke-linecap="round"/>
<path d="M19.0708 58.6692C19.0708 62.4417 16.0125 65.5 12.24 65.5C8.46743 65.5 5.40918 62.4417 5.40918 58.6692C5.40918 54.8966 8.46743 51.8384 12.24 51.8384C16.0125 51.8384 19.0708 54.8966 19.0708 58.6692Z" stroke="black" stroke-linecap="round"/>
<path d="M19.353 58.8499L29.103 58.8499" stroke="black" stroke-linecap="round"/>
<path d="M1.5 22.0262H47.417V32.6309C47.417 35.6685 44.9546 38.1309 41.917 38.1309H7.00001C3.96244 38.1309 1.5 35.6685 1.5 32.6309V22.0262Z" stroke="black" stroke-linecap="round"/>
<path d="M1.48893 21.5262C1.48893 18.8306 2.01986 16.1615 3.05139 13.6711C4.08293 11.1808 5.59488 8.918 7.50092 7.01196C9.40695 5.10593 11.6697 3.59398 14.1601 2.56244C16.6505 1.53091 19.3196 0.99998 22.0151 0.99998L22.0151 21.5262" stroke="black" stroke-linecap="round"/>
</svg>
