<svg width="42" height="51" viewBox="0 0 42 51" fill="none" xmlns="http://www.w3.org/2000/svg">
<path d="M14.3267 5.81148C14.4508 8.73344 12.1826 11.2027 9.26069 11.3268C6.33872 11.4508 3.86944 9.18269 3.74538 6.26072C3.62133 3.33876 5.88948 0.869473 8.81144 0.745418C11.7334 0.621362 14.2027 2.88951 14.3267 5.81148Z" stroke="black" stroke-linecap="round"/>
<path d="M1 21V34.8919C1 35.4442 1.44772 35.8919 2 35.8919H4.17391C4.7262 35.8919 5.17391 36.3396 5.17391 36.8919V50M17 21V34.8919C17 35.4442 16.5523 35.8919 16 35.8919H14.1739C13.6216 35.8919 13.1739 36.3396 13.1739 36.8919V50" stroke="black" stroke-linecap="round"/>
<path d="M17 21C17 19.1435 16.1571 17.363 14.6569 16.0503C13.1566 14.7375 11.1217 14 9 14C6.87827 14 4.84344 14.7375 3.34315 16.0503C1.84286 17.363 1 19.1435 1 21" stroke="black" stroke-linecap="round"/>
<circle cx="30.4126" cy="6.03616" r="5.29551" transform="rotate(-2.4311 30.4126 6.03616)" stroke="black" stroke-linecap="round"/>
<path d="M27.0317 21.094L23.3473 34.5112C23.1725 35.1477 23.6515 35.776 24.3116 35.776H26.0317C26.5839 35.776 27.0317 36.2237 27.0317 36.776V49.6852M34.759 21.094L38.1415 34.5319C38.3005 35.1634 37.823 35.776 37.1718 35.776H35.759C35.2067 35.776 34.759 36.2237 34.759 36.776V49.6852" stroke="black" stroke-linecap="round"/>
<path d="M40.8638 29.6066C40.8638 29.6066 37.3451 17.4931 35.896 16.1888C34.4468 14.8846 32.4813 14.1519 30.4319 14.1519C28.3825 14.1519 26.417 14.8846 24.9679 16.1888C23.0909 18.7883 20 29.6066 20 29.6066" stroke="black" stroke-linecap="round"/>
</svg>
