<svg width="82" height="101" viewBox="0 0 82 101" fill="none" xmlns="http://www.w3.org/2000/svg">
<circle cx="17.4062" cy="11.7188" r="11.2188" stroke="black" stroke-linecap="round"/>
<path d="M1 42.1876V70.8751C1 71.4273 1.44772 71.8751 2 71.8751H8.15217C8.70446 71.8751 9.15217 72.3228 9.15217 72.8751V100M32.25 42.1876V70.8751C32.25 71.4273 31.8023 71.8751 31.25 71.8751H25.7772C25.2249 71.8751 24.7772 72.3228 24.7772 72.8751V100" stroke="black" stroke-linecap="round"/>
<path d="M32.25 42.1874C32.25 38.4578 30.6038 34.881 27.6735 32.2438C24.7433 29.6065 20.769 28.1249 16.625 28.1249C12.481 28.1249 8.50671 29.6065 5.57646 32.2437C2.6462 34.881 1 38.4578 1 42.1874" stroke="black" stroke-linecap="round"/>
<circle cx="61.125" cy="11.7188" r="11.2188" stroke="black" stroke-linecap="round"/>
<path d="M52.8709 42.1876L45.0661 70.6103C44.8913 71.2468 45.3703 71.8751 46.0304 71.8751H51.8709C52.4232 71.8751 52.8709 72.3228 52.8709 72.8751V100M68.4959 42.1876L75.6556 70.631C75.8146 71.2625 75.3371 71.8751 74.6858 71.8751H69.4959C68.9436 71.8751 68.4959 72.3228 68.4959 72.8751V100" stroke="black" stroke-linecap="round"/>
<path d="M81.4375 59.3749C81.4375 59.3749 74.3226 34.881 71.3923 32.2438C68.462 29.6065 64.4878 28.1249 60.3438 28.1249C56.1997 28.1249 52.2255 29.6065 49.2952 32.2437C45.5 37.4999 39.25 59.3749 39.25 59.3749" stroke="black" stroke-linecap="round"/>
</svg>
