<svg width="20" height="20" viewBox="0 0 20 20" fill="none" xmlns="http://www.w3.org/2000/svg">
<path d="M0.5 3C0.5 1.61929 1.61929 0.5 3 0.5H13.1042C13.754 0.5 14.3782 0.752982 14.8447 1.20534L18.7405 4.98348C19.226 5.45433 19.5 6.10181 19.5 6.77814V17C19.5 18.3807 18.3807 19.5 17 19.5H3C1.61929 19.5 0.5 18.3807 0.5 17V3Z" stroke="black"/>
<path d="M3.5 1C3.5 0.723858 3.72386 0.5 4 0.5H12C12.2761 0.5 12.5 0.723858 12.5 1V4C12.5 4.27614 12.2761 4.5 12 4.5H4C3.72386 4.5 3.5 4.27614 3.5 4V1Z" stroke="black"/>
<rect x="0.5" y="-0.5" width="7" height="9" rx="0.5" transform="matrix(1 0 0 -1 6 19)" stroke="black"/>
</svg>
